<svg width="1180" height="592" viewBox="0 0 1180 592" fill="none" xmlns="http://www.w3.org/2000/svg">
<path d="M671.285 424.119C664.768 424.119 659.175 421.785 654.507 417.117C649.84 412.449 647.506 406.857 647.506 400.339C647.506 393.822 649.84 388.229 654.507 383.562C659.175 378.894 664.768 376.56 671.285 376.56C677.803 376.56 683.395 378.894 688.063 383.562C692.731 388.229 695.065 393.822 695.065 400.339C695.065 404.655 693.964 408.618 691.762 412.229C689.648 415.84 686.786 418.746 683.175 420.948C679.652 423.062 675.689 424.119 671.285 424.119Z" fill="#E61D6F"/>
<path d="M27.1571 426V394.379H139.878C148.558 394.379 155.999 392.395 162.199 388.426C168.399 384.21 173.235 378.878 176.707 372.43C180.18 365.981 181.916 359.161 181.916 351.969C181.916 344.529 180.18 337.708 176.707 331.508C173.483 325.06 168.771 319.976 162.571 316.255C156.619 312.287 149.302 310.303 140.622 310.303H91.5159C76.8832 310.303 63.9867 307.327 52.8262 301.375C41.6658 295.174 32.8614 286.742 26.4131 276.078C20.2129 265.165 17.1127 252.889 17.1127 239.248C17.1127 225.36 20.0888 212.835 26.0411 201.675C32.2414 190.514 40.7977 181.71 51.7102 175.261C62.8707 168.813 75.6432 165.589 90.0278 165.589H200.516V197.21H93.3759C85.1916 197.21 77.9993 199.194 71.799 203.163C65.5988 206.883 60.8866 211.843 57.6624 218.043C54.4383 223.995 52.8262 230.444 52.8262 237.388C52.8262 244.084 54.3143 250.533 57.2904 256.733C60.5146 262.685 65.1027 267.521 71.055 271.241C77.2553 274.962 84.3236 276.822 92.2599 276.822H142.482C158.107 276.822 171.499 279.922 182.66 286.122C193.82 292.322 202.377 300.755 208.329 311.419C214.281 322.084 217.257 334.236 217.257 347.877C217.257 363.005 214.157 376.522 207.957 388.426C202.005 400.083 193.448 409.259 182.288 415.956C171.127 422.652 158.355 426 143.97 426H27.1571ZM349.677 430.464C330.332 430.464 313.22 426.124 298.339 417.444C283.458 408.515 271.678 396.611 262.998 381.73C254.317 366.601 249.977 349.737 249.977 331.136C249.977 312.535 254.317 295.795 262.998 280.914C271.678 265.785 283.458 253.881 298.339 245.2C313.22 236.272 330.332 231.808 349.677 231.808C369.022 231.808 386.135 236.272 401.015 245.2C416.144 253.881 427.925 265.661 436.357 280.542C445.037 295.422 449.377 312.287 449.377 331.136C449.377 349.737 445.037 366.601 436.357 381.73C427.925 396.611 416.144 408.515 401.015 417.444C386.135 426.124 369.022 430.464 349.677 430.464ZM349.677 401.075C362.822 401.075 374.23 397.975 383.903 391.775C393.575 385.574 401.139 377.266 406.596 366.85C412.052 356.185 414.78 344.281 414.78 331.136C414.78 317.991 412.052 306.211 406.596 295.795C401.139 285.13 393.575 276.698 383.903 270.497C374.23 264.297 362.822 261.197 349.677 261.197C336.781 261.197 325.372 264.297 315.452 270.497C305.779 276.698 298.215 285.13 292.759 295.795C287.303 306.211 284.575 317.991 284.575 331.136C284.575 344.281 287.303 356.185 292.759 366.85C298.215 377.266 305.779 385.574 315.452 391.775C325.372 397.975 336.781 401.075 349.677 401.075ZM504.427 426V265.661H471.318V236.272H504.427V208.371C504.427 191.506 509.139 178.362 518.564 168.937C528.236 159.265 541.505 154.429 558.369 154.429H605.243V183.818H565.066C556.633 183.818 550.185 186.174 545.721 190.886C541.257 195.598 539.025 202.171 539.025 210.603V236.272H597.803V265.661H539.025V426H504.427Z" fill="#C5D200"/>
<path d="M763.376 426V394.379H813.598V197.21H763.376V165.589H899.162V197.21H849.312V394.379H899.162V426H763.376ZM919.158 426L1007.7 190.514C1011.67 180.346 1017.12 172.905 1024.07 168.193C1031.01 163.481 1039.07 161.125 1048.25 161.125C1057.42 161.125 1065.48 163.481 1072.43 168.193C1079.62 172.657 1085.08 179.974 1088.8 190.142L1177.71 426H1138.65L1115.95 363.129H979.796L956.731 426H919.158ZM990.957 331.508H1105.17L1058.66 202.419C1057.42 199.194 1056.06 196.714 1054.57 194.978C1053.08 193.242 1050.98 192.374 1048.25 192.374C1045.77 192.374 1043.78 193.242 1042.29 194.978C1040.81 196.714 1039.57 199.194 1038.57 202.419L990.957 331.508Z" fill="#CFCFD1"/>
</svg>
