<svg width="83" height="60" viewBox="0 0 83 60" fill="none" xmlns="http://www.w3.org/2000/svg">
<rect width="80" height="60" fill="#E51E6F"/>
<path d="M19.876 35V33.98H23.512C23.792 33.98 24.032 33.916 24.232 33.788C24.432 33.652 24.588 33.48 24.7 33.272C24.812 33.064 24.868 32.844 24.868 32.612C24.868 32.372 24.812 32.152 24.7 31.952C24.596 31.744 24.444 31.58 24.244 31.46C24.052 31.332 23.816 31.268 23.536 31.268H21.952C21.48 31.268 21.064 31.172 20.704 30.98C20.344 30.78 20.06 30.508 19.852 30.164C19.652 29.812 19.552 29.416 19.552 28.976C19.552 28.528 19.648 28.124 19.84 27.764C20.04 27.404 20.316 27.12 20.668 26.912C21.028 26.704 21.44 26.6 21.904 26.6H25.468V27.62H22.012C21.748 27.62 21.516 27.684 21.316 27.812C21.116 27.932 20.964 28.092 20.86 28.292C20.756 28.484 20.704 28.692 20.704 28.916C20.704 29.132 20.752 29.34 20.848 29.54C20.952 29.732 21.1 29.888 21.292 30.008C21.492 30.128 21.72 30.188 21.976 30.188H23.596C24.1 30.188 24.532 30.288 24.892 30.488C25.252 30.688 25.528 30.96 25.72 31.304C25.912 31.648 26.008 32.04 26.008 32.48C26.008 32.968 25.908 33.404 25.708 33.788C25.516 34.164 25.24 34.46 24.88 34.676C24.52 34.892 24.108 35 23.644 35H19.876ZM30.2794 35.144C29.6554 35.144 29.1034 35.004 28.6234 34.724C28.1434 34.436 27.7634 34.052 27.4834 33.572C27.2034 33.084 27.0634 32.54 27.0634 31.94C27.0634 31.34 27.2034 30.8 27.4834 30.32C27.7634 29.832 28.1434 29.448 28.6234 29.168C29.1034 28.88 29.6554 28.736 30.2794 28.736C30.9034 28.736 31.4554 28.88 31.9354 29.168C32.4234 29.448 32.8034 29.828 33.0754 30.308C33.3554 30.788 33.4954 31.332 33.4954 31.94C33.4954 32.54 33.3554 33.084 33.0754 33.572C32.8034 34.052 32.4234 34.436 31.9354 34.724C31.4554 35.004 30.9034 35.144 30.2794 35.144ZM30.2794 34.196C30.7034 34.196 31.0714 34.096 31.3834 33.896C31.6954 33.696 31.9394 33.428 32.1154 33.092C32.2914 32.748 32.3794 32.364 32.3794 31.94C32.3794 31.516 32.2914 31.136 32.1154 30.8C31.9394 30.456 31.6954 30.184 31.3834 29.984C31.0714 29.784 30.7034 29.684 30.2794 29.684C29.8634 29.684 29.4954 29.784 29.1754 29.984C28.8634 30.184 28.6194 30.456 28.4434 30.8C28.2674 31.136 28.1794 31.516 28.1794 31.94C28.1794 32.364 28.2674 32.748 28.4434 33.092C28.6194 33.428 28.8634 33.696 29.1754 33.896C29.4954 34.096 29.8634 34.196 30.2794 34.196ZM35.2712 35V29.828H34.2032V28.88H35.2712V27.98C35.2712 27.436 35.4232 27.012 35.7272 26.708C36.0392 26.396 36.4672 26.24 37.0112 26.24H38.5232V27.188H37.2272C36.9552 27.188 36.7472 27.264 36.6032 27.416C36.4592 27.568 36.3872 27.78 36.3872 28.052V28.88H38.2832V29.828H36.3872V35H35.2712Z" fill="#342056"/>
<path d="M40.6534 35.0682C40.4432 35.0682 40.2628 34.9929 40.1122 34.8423C39.9616 34.6918 39.8864 34.5114 39.8864 34.3011C39.8864 34.0909 39.9616 33.9105 40.1122 33.7599C40.2628 33.6094 40.4432 33.5341 40.6534 33.5341C40.8636 33.5341 41.044 33.6094 41.1946 33.7599C41.3452 33.9105 41.4205 34.0909 41.4205 34.3011C41.4205 34.4403 41.3849 34.5682 41.3139 34.6847C41.2457 34.8011 41.1534 34.8949 41.0369 34.9659C40.9233 35.0341 40.7955 35.0682 40.6534 35.0682Z" fill="#C5D101"/>
<path d="M43.624 35V33.98H45.244V27.62H43.624V26.6H48.004V27.62H46.396V33.98H48.004V35H43.624ZM48.649 35L51.505 27.404C51.633 27.076 51.809 26.836 52.033 26.684C52.257 26.532 52.517 26.456 52.813 26.456C53.109 26.456 53.369 26.532 53.593 26.684C53.825 26.828 54.001 27.064 54.121 27.392L56.989 35H55.729L54.997 32.972H50.605L49.861 35H48.649ZM50.965 31.952H54.649L53.149 27.788C53.109 27.684 53.065 27.604 53.017 27.548C52.969 27.492 52.901 27.464 52.813 27.464C52.733 27.464 52.669 27.492 52.621 27.548C52.573 27.604 52.533 27.684 52.501 27.788L50.965 31.952Z" fill="white"/>
<path d="M19.716 39.406V38.988H19.908V39.406H19.716ZM19.812 39.026C19.7013 39.026 19.6013 39.0073 19.512 38.97C19.4227 38.9313 19.346 38.8787 19.282 38.812C19.2193 38.7453 19.1707 38.668 19.136 38.58C19.1013 38.492 19.084 38.398 19.084 38.298C19.084 38.1993 19.1013 38.106 19.136 38.018C19.1707 37.93 19.2193 37.8527 19.282 37.786C19.346 37.7193 19.4227 37.6673 19.512 37.63C19.6013 37.5927 19.7013 37.574 19.812 37.574C19.9227 37.574 20.0227 37.5927 20.112 37.63C20.2013 37.6673 20.2773 37.7193 20.34 37.786C20.404 37.8527 20.4533 37.93 20.488 38.018C20.5227 38.106 20.54 38.2 20.54 38.3C20.54 38.3987 20.5227 38.492 20.488 38.58C20.4533 38.668 20.404 38.7453 20.34 38.812C20.2773 38.8787 20.2013 38.9313 20.112 38.97C20.0227 39.0073 19.9227 39.026 19.812 39.026ZM19.812 38.856C19.888 38.856 19.9587 38.842 20.024 38.814C20.0893 38.786 20.146 38.7467 20.194 38.696C20.2433 38.6453 20.2813 38.5867 20.308 38.52C20.3347 38.452 20.348 38.378 20.348 38.298C20.348 38.2193 20.3347 38.146 20.308 38.078C20.2813 38.01 20.244 37.9513 20.196 37.902C20.148 37.8513 20.0907 37.8127 20.024 37.786C19.9587 37.758 19.888 37.744 19.812 37.744C19.7347 37.744 19.6633 37.758 19.598 37.786C19.5327 37.8127 19.476 37.8513 19.428 37.902C19.38 37.9513 19.3427 38.01 19.316 38.078C19.2893 38.146 19.276 38.22 19.276 38.3C19.276 38.3787 19.2893 38.452 19.316 38.52C19.3427 38.5867 19.38 38.6453 19.428 38.696C19.476 38.7467 19.5327 38.786 19.598 38.814C19.6633 38.842 19.7347 38.856 19.812 38.856ZM21.367 39.024C21.275 39.024 21.1924 39.0053 21.119 38.968C21.047 38.9293 20.9904 38.876 20.949 38.808C20.909 38.74 20.889 38.6607 20.889 38.57V37.98H21.075V38.568C21.075 38.6293 21.0884 38.6827 21.115 38.728C21.1417 38.772 21.177 38.806 21.221 38.83C21.2664 38.854 21.3144 38.866 21.365 38.866C21.417 38.866 21.465 38.854 21.509 38.83C21.5544 38.806 21.5904 38.772 21.617 38.728C21.645 38.6827 21.659 38.6293 21.659 38.568V37.98H21.845V38.57C21.845 38.6607 21.8244 38.74 21.783 38.808C21.7417 38.876 21.685 38.9293 21.613 38.968C21.541 39.0053 21.459 39.024 21.367 39.024ZM22.7751 39C22.6631 39 22.5638 38.9793 22.4771 38.938C22.3904 38.8953 22.3224 38.836 22.2731 38.76C22.2251 38.6827 22.2011 38.5927 22.2011 38.49C22.2011 38.3887 22.2218 38.298 22.2631 38.218C22.3044 38.1367 22.3618 38.0727 22.4351 38.026C22.5084 37.9793 22.5938 37.956 22.6911 37.956C22.7964 37.956 22.8838 37.9787 22.9531 38.024C23.0238 38.0693 23.0764 38.1307 23.1111 38.208C23.1458 38.284 23.1631 38.3693 23.1631 38.464C23.1631 38.4787 23.1624 38.494 23.1611 38.51C23.1611 38.526 23.1598 38.54 23.1571 38.552H22.3971C22.4038 38.6147 22.4244 38.668 22.4591 38.712C22.4938 38.7547 22.5378 38.7873 22.5911 38.81C22.6458 38.8313 22.7058 38.842 22.7711 38.842H23.0371V39H22.7751ZM22.3951 38.422H22.9771C22.9771 38.3967 22.9744 38.37 22.9691 38.342C22.9638 38.3127 22.9544 38.2847 22.9411 38.258C22.9278 38.23 22.9098 38.2053 22.8871 38.184C22.8658 38.1613 22.8384 38.1433 22.8051 38.13C22.7731 38.1167 22.7351 38.11 22.6911 38.11C22.6444 38.11 22.6031 38.1193 22.5671 38.138C22.5324 38.1553 22.5024 38.1793 22.4771 38.21C22.4518 38.2393 22.4324 38.2727 22.4191 38.31C22.4058 38.3473 22.3978 38.3847 22.3951 38.422ZM23.5177 39V38.386C23.5177 38.3073 23.5357 38.2353 23.5717 38.17C23.6077 38.1047 23.6597 38.0527 23.7277 38.014C23.7957 37.9753 23.8777 37.956 23.9737 37.956C24.0204 37.956 24.0671 37.9627 24.1137 37.976C24.1604 37.988 24.2037 38.0093 24.2437 38.04C24.2837 38.0693 24.3157 38.1093 24.3397 38.16H24.3417C24.3684 38.1093 24.4017 38.0693 24.4417 38.04C24.4817 38.0093 24.5251 37.988 24.5717 37.976C24.6184 37.9627 24.6657 37.956 24.7137 37.956C24.8084 37.956 24.8897 37.9753 24.9577 38.014C25.0257 38.0527 25.0777 38.1047 25.1137 38.17C25.1497 38.2353 25.1677 38.3073 25.1677 38.386V39H24.9837V38.386C24.9837 38.3353 24.9717 38.2893 24.9477 38.248C24.9237 38.2067 24.8911 38.174 24.8497 38.15C24.8097 38.126 24.7637 38.114 24.7117 38.114C24.6611 38.114 24.6144 38.1267 24.5717 38.152C24.5291 38.176 24.4951 38.2087 24.4697 38.25C24.4457 38.29 24.4337 38.3353 24.4337 38.386V39H24.2497V38.386C24.2497 38.3353 24.2371 38.29 24.2117 38.25C24.1877 38.2087 24.1544 38.176 24.1117 38.152C24.0704 38.1267 24.0237 38.114 23.9717 38.114C23.9211 38.114 23.8751 38.126 23.8337 38.15C23.7937 38.174 23.7617 38.2067 23.7377 38.248C23.7137 38.2893 23.7017 38.3353 23.7017 38.386V39H23.5177ZM26.5764 39C26.4858 39 26.4144 38.974 26.3624 38.922C26.3118 38.87 26.2864 38.7993 26.2864 38.71V37.724H26.4704V38.698C26.4704 38.742 26.4824 38.7773 26.5064 38.804C26.5318 38.8293 26.5664 38.842 26.6104 38.842H26.8164V39H26.5764ZM26.1104 38.138V37.98H26.8204V38.138H26.1104ZM27.6496 39C27.5376 39 27.4383 38.9793 27.3516 38.938C27.265 38.8953 27.197 38.836 27.1476 38.76C27.0996 38.6827 27.0756 38.5927 27.0756 38.49C27.0756 38.3887 27.0963 38.298 27.1376 38.218C27.179 38.1367 27.2363 38.0727 27.3096 38.026C27.383 37.9793 27.4683 37.956 27.5656 37.956C27.671 37.956 27.7583 37.9787 27.8276 38.024C27.8983 38.0693 27.951 38.1307 27.9856 38.208C28.0203 38.284 28.0376 38.3693 28.0376 38.464C28.0376 38.4787 28.037 38.494 28.0356 38.51C28.0356 38.526 28.0343 38.54 28.0316 38.552H27.2716C27.2783 38.6147 27.299 38.668 27.3336 38.712C27.3683 38.7547 27.4123 38.7873 27.4656 38.81C27.5203 38.8313 27.5803 38.842 27.6456 38.842H27.9116V39H27.6496ZM27.2696 38.422H27.8516C27.8516 38.3967 27.849 38.37 27.8436 38.342C27.8383 38.3127 27.829 38.2847 27.8156 38.258C27.8023 38.23 27.7843 38.2053 27.7616 38.184C27.7403 38.1613 27.713 38.1433 27.6796 38.13C27.6476 38.1167 27.6096 38.11 27.5656 38.11C27.519 38.11 27.4776 38.1193 27.4416 38.138C27.407 38.1553 27.377 38.1793 27.3516 38.21C27.3263 38.2393 27.307 38.2727 27.2936 38.31C27.2803 38.3473 27.2723 38.3847 27.2696 38.422ZM29.4655 39.024C29.3669 39.024 29.2815 39.0007 29.2095 38.954C29.1375 38.906 29.0822 38.8413 29.0435 38.76C29.0049 38.6787 28.9855 38.5887 28.9855 38.49C28.9855 38.39 29.0069 38.3 29.0495 38.22C29.0922 38.1387 29.1535 38.0747 29.2335 38.028C29.3135 37.98 29.4095 37.956 29.5215 37.956C29.6295 37.956 29.7222 37.9793 29.7995 38.026C29.8769 38.0727 29.9362 38.136 29.9775 38.216C30.0202 38.296 30.0415 38.3853 30.0415 38.484V39H29.8555V38.792H29.8515C29.8315 38.8307 29.8042 38.868 29.7695 38.904C29.7362 38.9387 29.6942 38.9673 29.6435 38.99C29.5929 39.0127 29.5335 39.024 29.4655 39.024ZM29.5135 38.866C29.5802 38.866 29.6389 38.85 29.6895 38.818C29.7415 38.7847 29.7815 38.7393 29.8095 38.682C29.8389 38.6233 29.8535 38.558 29.8535 38.486C29.8535 38.4153 29.8395 38.352 29.8115 38.296C29.7849 38.24 29.7462 38.196 29.6955 38.164C29.6449 38.1307 29.5855 38.114 29.5175 38.114C29.4455 38.114 29.3835 38.1307 29.3315 38.164C29.2809 38.1973 29.2415 38.2427 29.2135 38.3C29.1869 38.356 29.1735 38.42 29.1735 38.492C29.1735 38.5613 29.1869 38.6247 29.2135 38.682C29.2402 38.738 29.2789 38.7827 29.3295 38.816C29.3802 38.8493 29.4415 38.866 29.5135 38.866ZM30.8044 39.024C30.7591 39.024 30.7178 39.0113 30.6804 38.986C30.6444 38.9593 30.6178 38.922 30.6004 38.874L30.2684 37.98H30.4704L30.7664 38.806C30.7718 38.8193 30.7778 38.8287 30.7844 38.834C30.7911 38.8393 30.7984 38.842 30.8064 38.842C30.8158 38.842 30.8231 38.8393 30.8284 38.834C30.8351 38.8287 30.8411 38.8193 30.8464 38.806L31.1444 37.98H31.3424L31.0104 38.874C30.9918 38.922 30.9644 38.9593 30.9284 38.986C30.8924 39.0113 30.8511 39.024 30.8044 39.024ZM31.6487 39V37.98H31.8347V39H31.6487ZM31.7427 37.818C31.7094 37.818 31.6801 37.806 31.6547 37.782C31.6307 37.7567 31.6187 37.7273 31.6187 37.694C31.6187 37.6607 31.6307 37.632 31.6547 37.608C31.6801 37.5827 31.7094 37.57 31.7427 37.57C31.7761 37.57 31.8047 37.5827 31.8287 37.608C31.8541 37.632 31.8667 37.6607 31.8667 37.694C31.8667 37.7273 31.8541 37.7567 31.8287 37.782C31.8047 37.806 31.7761 37.818 31.7427 37.818ZM32.2313 39V38.842H32.7193C32.7513 38.842 32.7786 38.8353 32.8013 38.822C32.8253 38.8073 32.8433 38.7887 32.8553 38.766C32.8673 38.7433 32.8733 38.7193 32.8733 38.694C32.8733 38.67 32.868 38.648 32.8573 38.628C32.8466 38.6067 32.83 38.59 32.8073 38.578C32.786 38.5647 32.76 38.558 32.7293 38.558H32.5233C32.458 38.558 32.4006 38.5473 32.3513 38.526C32.3033 38.5033 32.2653 38.4707 32.2373 38.428C32.2106 38.3853 32.1973 38.3333 32.1973 38.272C32.1973 38.22 32.21 38.172 32.2353 38.128C32.2606 38.084 32.296 38.0487 32.3413 38.022C32.3866 37.994 32.4386 37.98 32.4973 37.98H32.9673V38.138H32.5153C32.474 38.138 32.4413 38.1507 32.4173 38.176C32.3933 38.2013 32.3813 38.2313 32.3813 38.266C32.3813 38.2993 32.3933 38.3287 32.4173 38.354C32.4426 38.378 32.478 38.39 32.5233 38.39H32.7193C32.7926 38.39 32.854 38.402 32.9033 38.426C32.954 38.4487 32.992 38.482 33.0173 38.526C33.044 38.57 33.0573 38.624 33.0573 38.688C33.0573 38.7427 33.044 38.794 33.0173 38.842C32.9906 38.8887 32.9533 38.9267 32.9053 38.956C32.8586 38.9853 32.804 39 32.7413 39H32.2313ZM33.844 39.024C33.7453 39.024 33.66 39.0007 33.588 38.954C33.516 38.906 33.4607 38.8413 33.422 38.76C33.3833 38.6787 33.364 38.5887 33.364 38.49C33.364 38.39 33.3853 38.3 33.428 38.22C33.4707 38.1387 33.532 38.0747 33.612 38.028C33.692 37.98 33.788 37.956 33.9 37.956C34.008 37.956 34.1007 37.9793 34.178 38.026C34.2553 38.0727 34.3147 38.136 34.356 38.216C34.3987 38.296 34.42 38.3853 34.42 38.484V39H34.234V38.792H34.23C34.21 38.8307 34.1827 38.868 34.148 38.904C34.1147 38.9387 34.0727 38.9673 34.022 38.99C33.9713 39.0127 33.912 39.024 33.844 39.024ZM33.892 38.866C33.9587 38.866 34.0173 38.85 34.068 38.818C34.12 38.7847 34.16 38.7393 34.188 38.682C34.2173 38.6233 34.232 38.558 34.232 38.486C34.232 38.4153 34.218 38.352 34.19 38.296C34.1633 38.24 34.1247 38.196 34.074 38.164C34.0233 38.1307 33.964 38.114 33.896 38.114C33.824 38.114 33.762 38.1307 33.71 38.164C33.6593 38.1973 33.62 38.2427 33.592 38.3C33.5653 38.356 33.552 38.42 33.552 38.492C33.552 38.5613 33.5653 38.6247 33.592 38.682C33.6187 38.738 33.6573 38.7827 33.708 38.816C33.7587 38.8493 33.82 38.866 33.892 38.866ZM34.763 39.3L34.853 39.012C34.8236 39.0027 34.801 38.986 34.785 38.962C34.7703 38.9367 34.763 38.9113 34.763 38.886C34.763 38.8487 34.7756 38.818 34.801 38.794C34.8276 38.7687 34.859 38.756 34.895 38.756C34.935 38.756 34.967 38.7693 34.991 38.796C35.015 38.8227 35.027 38.8547 35.027 38.892C35.027 38.9173 35.025 38.9413 35.021 38.964C35.017 38.9853 35.0096 39.01 34.999 39.038L34.919 39.3H34.763ZM36.3663 39C36.2756 39 36.2043 38.974 36.1523 38.922C36.1016 38.87 36.0763 38.7993 36.0763 38.71V37.724H36.2603V38.698C36.2603 38.742 36.2723 38.7773 36.2963 38.804C36.3216 38.8293 36.3563 38.842 36.4003 38.842H36.6063V39H36.3663ZM35.9003 38.138V37.98H36.6103V38.138H35.9003ZM37.4395 39C37.3275 39 37.2281 38.9793 37.1415 38.938C37.0548 38.8953 36.9868 38.836 36.9375 38.76C36.8895 38.6827 36.8655 38.5927 36.8655 38.49C36.8655 38.3887 36.8861 38.298 36.9275 38.218C36.9688 38.1367 37.0261 38.0727 37.0995 38.026C37.1728 37.9793 37.2581 37.956 37.3555 37.956C37.4608 37.956 37.5481 37.9787 37.6175 38.024C37.6881 38.0693 37.7408 38.1307 37.7755 38.208C37.8101 38.284 37.8275 38.3693 37.8275 38.464C37.8275 38.4787 37.8268 38.494 37.8255 38.51C37.8255 38.526 37.8241 38.54 37.8215 38.552H37.0615C37.0681 38.6147 37.0888 38.668 37.1235 38.712C37.1581 38.7547 37.2021 38.7873 37.2555 38.81C37.3101 38.8313 37.3701 38.842 37.4355 38.842H37.7015V39H37.4395ZM37.0595 38.422H37.6415C37.6415 38.3967 37.6388 38.37 37.6335 38.342C37.6281 38.3127 37.6188 38.2847 37.6055 38.258C37.5921 38.23 37.5741 38.2053 37.5515 38.184C37.5301 38.1613 37.5028 38.1433 37.4695 38.13C37.4375 38.1167 37.3995 38.11 37.3555 38.11C37.3088 38.11 37.2675 38.1193 37.2315 38.138C37.1968 38.1553 37.1668 38.1793 37.1415 38.21C37.1161 38.2393 37.0968 38.2727 37.0835 38.31C37.0701 38.3473 37.0621 38.3847 37.0595 38.422ZM39.2554 39.024C39.1567 39.024 39.0714 39.0007 38.9994 38.954C38.9274 38.906 38.8721 38.8413 38.8334 38.76C38.7947 38.6787 38.7754 38.5887 38.7754 38.49C38.7754 38.39 38.7967 38.3 38.8394 38.22C38.8821 38.1387 38.9434 38.0747 39.0234 38.028C39.1034 37.98 39.1994 37.956 39.3114 37.956C39.4194 37.956 39.5121 37.9793 39.5894 38.026C39.6667 38.0727 39.7261 38.136 39.7674 38.216C39.8101 38.296 39.8314 38.3853 39.8314 38.484V39H39.6454V38.792H39.6414C39.6214 38.8307 39.5941 38.868 39.5594 38.904C39.5261 38.9387 39.4841 38.9673 39.4334 38.99C39.3827 39.0127 39.3234 39.024 39.2554 39.024ZM39.3034 38.866C39.3701 38.866 39.4287 38.85 39.4794 38.818C39.5314 38.7847 39.5714 38.7393 39.5994 38.682C39.6287 38.6233 39.6434 38.558 39.6434 38.486C39.6434 38.4153 39.6294 38.352 39.6014 38.296C39.5747 38.24 39.5361 38.196 39.4854 38.164C39.4347 38.1307 39.3754 38.114 39.3074 38.114C39.2354 38.114 39.1734 38.1307 39.1214 38.164C39.0707 38.1973 39.0314 38.2427 39.0034 38.3C38.9767 38.356 38.9634 38.42 38.9634 38.492C38.9634 38.5613 38.9767 38.6247 39.0034 38.682C39.0301 38.738 39.0687 38.7827 39.1194 38.816C39.1701 38.8493 39.2314 38.866 39.3034 38.866ZM39.9444 39.33V39.172H40.1064C40.1517 39.172 40.1864 39.1587 40.2104 39.132C40.2344 39.1067 40.2464 39.072 40.2464 39.028V37.98H40.4304V39.04C40.4304 39.1293 40.4044 39.2 40.3524 39.252C40.3004 39.304 40.229 39.33 40.1384 39.33H39.9444ZM40.3364 37.816C40.303 37.816 40.2737 37.804 40.2484 37.78C40.2244 37.7547 40.2124 37.7253 40.2124 37.692C40.2124 37.6587 40.2244 37.63 40.2484 37.606C40.2737 37.5807 40.303 37.568 40.3364 37.568C40.3697 37.568 40.3984 37.5807 40.4224 37.606C40.4477 37.63 40.4604 37.6587 40.4604 37.692C40.4604 37.7253 40.4477 37.7547 40.4224 37.78C40.3984 37.804 40.3697 37.816 40.3364 37.816ZM41.3189 39.024C41.2269 39.024 41.1443 39.0053 41.0709 38.968C40.9989 38.9293 40.9423 38.876 40.9009 38.808C40.8609 38.74 40.8409 38.6607 40.8409 38.57V37.98H41.0269V38.568C41.0269 38.6293 41.0403 38.6827 41.0669 38.728C41.0936 38.772 41.1289 38.806 41.1729 38.83C41.2183 38.854 41.2663 38.866 41.3169 38.866C41.3689 38.866 41.4169 38.854 41.4609 38.83C41.5063 38.806 41.5423 38.772 41.5689 38.728C41.5969 38.6827 41.6109 38.6293 41.6109 38.568V37.98H41.7969V38.57C41.7969 38.6607 41.7763 38.74 41.7349 38.808C41.6936 38.876 41.6369 38.9293 41.5649 38.968C41.4929 39.0053 41.4109 39.024 41.3189 39.024ZM42.679 39.024C42.6016 39.024 42.531 39.012 42.467 38.988C42.403 38.9627 42.3476 38.926 42.301 38.878C42.2543 38.83 42.2176 38.7727 42.191 38.706C42.1656 38.638 42.153 38.562 42.153 38.478C42.153 38.3713 42.1743 38.2793 42.217 38.202C42.261 38.1233 42.3203 38.0627 42.395 38.02C42.471 37.9773 42.5556 37.956 42.649 37.956C42.701 37.956 42.7503 37.9647 42.797 37.982C42.845 37.9993 42.8876 38.0233 42.925 38.054C42.9623 38.0847 42.9916 38.1207 43.013 38.162H43.017V37.54H43.201V38.484C43.201 38.5973 43.1776 38.6947 43.131 38.776C43.0856 38.856 43.0236 38.9173 42.945 38.96C42.8676 39.0027 42.779 39.024 42.679 39.024ZM42.679 38.866C42.7416 38.866 42.7983 38.8507 42.849 38.82C42.8996 38.7893 42.9396 38.746 42.969 38.69C42.9996 38.634 43.015 38.568 43.015 38.492C43.015 38.4147 42.9996 38.348 42.969 38.292C42.9396 38.2347 42.8996 38.1907 42.849 38.16C42.7983 38.1293 42.741 38.114 42.677 38.114C42.6143 38.114 42.557 38.13 42.505 38.162C42.4543 38.194 42.4136 38.238 42.383 38.294C42.3536 38.35 42.339 38.4153 42.339 38.49C42.339 38.5673 42.3543 38.634 42.385 38.69C42.4156 38.746 42.4563 38.7893 42.507 38.82C42.559 38.8507 42.6163 38.866 42.679 38.866ZM44.0303 39.024C43.9316 39.024 43.8463 39.0007 43.7743 38.954C43.7023 38.906 43.647 38.8413 43.6083 38.76C43.5696 38.6787 43.5503 38.5887 43.5503 38.49C43.5503 38.39 43.5716 38.3 43.6143 38.22C43.657 38.1387 43.7183 38.0747 43.7983 38.028C43.8783 37.98 43.9743 37.956 44.0863 37.956C44.1943 37.956 44.287 37.9793 44.3643 38.026C44.4416 38.0727 44.501 38.136 44.5423 38.216C44.585 38.296 44.6063 38.3853 44.6063 38.484V39H44.4203V38.792H44.4163C44.3963 38.8307 44.369 38.868 44.3343 38.904C44.301 38.9387 44.259 38.9673 44.2083 38.99C44.1576 39.0127 44.0983 39.024 44.0303 39.024ZM44.0783 38.866C44.145 38.866 44.2036 38.85 44.2543 38.818C44.3063 38.7847 44.3463 38.7393 44.3743 38.682C44.4036 38.6233 44.4183 38.558 44.4183 38.486C44.4183 38.4153 44.4043 38.352 44.3763 38.296C44.3496 38.24 44.311 38.196 44.2603 38.164C44.2096 38.1307 44.1503 38.114 44.0823 38.114C44.0103 38.114 43.9483 38.1307 43.8963 38.164C43.8456 38.1973 43.8063 38.2427 43.7783 38.3C43.7516 38.356 43.7383 38.42 43.7383 38.492C43.7383 38.5613 43.7516 38.6247 43.7783 38.682C43.805 38.738 43.8436 38.7827 43.8943 38.816C43.945 38.8493 44.0063 38.866 44.0783 38.866ZM46.1866 39C46.0746 39 45.9752 38.9793 45.8886 38.938C45.8019 38.8953 45.7339 38.836 45.6846 38.76C45.6366 38.6827 45.6126 38.5927 45.6126 38.49C45.6126 38.3887 45.6332 38.298 45.6746 38.218C45.7159 38.1367 45.7732 38.0727 45.8466 38.026C45.9199 37.9793 46.0052 37.956 46.1026 37.956C46.2079 37.956 46.2952 37.9787 46.3646 38.024C46.4352 38.0693 46.4879 38.1307 46.5226 38.208C46.5572 38.284 46.5746 38.3693 46.5746 38.464C46.5746 38.4787 46.5739 38.494 46.5726 38.51C46.5726 38.526 46.5712 38.54 46.5686 38.552H45.8086C45.8152 38.6147 45.8359 38.668 45.8706 38.712C45.9052 38.7547 45.9492 38.7873 46.0026 38.81C46.0572 38.8313 46.1172 38.842 46.1826 38.842H46.4486V39H46.1866ZM45.8066 38.422H46.3886C46.3886 38.3967 46.3859 38.37 46.3806 38.342C46.3752 38.3127 46.3659 38.2847 46.3526 38.258C46.3392 38.23 46.3212 38.2053 46.2986 38.184C46.2772 38.1613 46.2499 38.1433 46.2166 38.13C46.1846 38.1167 46.1466 38.11 46.1026 38.11C46.0559 38.11 46.0146 38.1193 45.9786 38.138C45.9439 38.1553 45.9139 38.1793 45.8886 38.21C45.8632 38.2393 45.8439 38.2727 45.8306 38.31C45.8172 38.3473 45.8092 38.3847 45.8066 38.422ZM48.0725 39C47.9672 39 47.8732 38.9773 47.7905 38.932C47.7078 38.8867 47.6425 38.826 47.5945 38.75C47.5465 38.6727 47.5225 38.586 47.5225 38.49C47.5225 38.394 47.5465 38.308 47.5945 38.232C47.6425 38.1547 47.7078 38.0933 47.7905 38.048C47.8732 38.0027 47.9672 37.98 48.0725 37.98H48.1925V38.138H48.0665C47.9985 38.138 47.9372 38.154 47.8825 38.186C47.8292 38.2167 47.7865 38.2587 47.7545 38.312C47.7238 38.3653 47.7085 38.4247 47.7085 38.49C47.7085 38.5553 47.7238 38.6147 47.7545 38.668C47.7865 38.7213 47.8292 38.764 47.8825 38.796C47.9372 38.8267 47.9985 38.842 48.0665 38.842H48.1925V39H48.0725ZM48.9467 39.024C48.8481 39.024 48.7627 39.0007 48.6907 38.954C48.6187 38.906 48.5634 38.8413 48.5247 38.76C48.4861 38.6787 48.4667 38.5887 48.4667 38.49C48.4667 38.39 48.4881 38.3 48.5307 38.22C48.5734 38.1387 48.6347 38.0747 48.7147 38.028C48.7947 37.98 48.8907 37.956 49.0027 37.956C49.1107 37.956 49.2034 37.9793 49.2807 38.026C49.3581 38.0727 49.4174 38.136 49.4587 38.216C49.5014 38.296 49.5227 38.3853 49.5227 38.484V39H49.3367V38.792H49.3327C49.3127 38.8307 49.2854 38.868 49.2507 38.904C49.2174 38.9387 49.1754 38.9673 49.1247 38.99C49.0741 39.0127 49.0147 39.024 48.9467 39.024ZM48.9947 38.866C49.0614 38.866 49.1201 38.85 49.1707 38.818C49.2227 38.7847 49.2627 38.7393 49.2907 38.682C49.3201 38.6233 49.3347 38.558 49.3347 38.486C49.3347 38.4153 49.3207 38.352 49.2927 38.296C49.2661 38.24 49.2274 38.196 49.1767 38.164C49.1261 38.1307 49.0667 38.114 48.9987 38.114C48.9267 38.114 48.8647 38.1307 48.8127 38.164C48.7621 38.1973 48.7227 38.2427 48.6947 38.3C48.6681 38.356 48.6547 38.42 48.6547 38.492C48.6547 38.5613 48.6681 38.6247 48.6947 38.682C48.7214 38.738 48.7601 38.7827 48.8107 38.816C48.8614 38.8493 48.9227 38.866 48.9947 38.866ZM49.9357 39V38.386C49.9357 38.3073 49.9537 38.2353 49.9897 38.17C50.0257 38.1047 50.0777 38.0527 50.1457 38.014C50.2137 37.9753 50.2957 37.956 50.3917 37.956C50.4384 37.956 50.485 37.9627 50.5317 37.976C50.5784 37.988 50.6217 38.0093 50.6617 38.04C50.7017 38.0693 50.7337 38.1093 50.7577 38.16H50.7597C50.7864 38.1093 50.8197 38.0693 50.8597 38.04C50.8997 38.0093 50.943 37.988 50.9897 37.976C51.0364 37.9627 51.0837 37.956 51.1317 37.956C51.2264 37.956 51.3077 37.9753 51.3757 38.014C51.4437 38.0527 51.4957 38.1047 51.5317 38.17C51.5677 38.2353 51.5857 38.3073 51.5857 38.386V39H51.4017V38.386C51.4017 38.3353 51.3897 38.2893 51.3657 38.248C51.3417 38.2067 51.309 38.174 51.2677 38.15C51.2277 38.126 51.1817 38.114 51.1297 38.114C51.079 38.114 51.0324 38.1267 50.9897 38.152C50.947 38.176 50.913 38.2087 50.8877 38.25C50.8637 38.29 50.8517 38.3353 50.8517 38.386V39H50.6677V38.386C50.6677 38.3353 50.655 38.29 50.6297 38.25C50.6057 38.2087 50.5724 38.176 50.5297 38.152C50.4884 38.1267 50.4417 38.114 50.3897 38.114C50.339 38.114 50.293 38.126 50.2517 38.15C50.2117 38.174 50.1797 38.2067 50.1557 38.248C50.1317 38.2893 50.1197 38.3353 50.1197 38.386V39H49.9357ZM51.9971 39V37.98H52.1831V39H51.9971ZM52.0911 37.818C52.0578 37.818 52.0284 37.806 52.0031 37.782C51.9791 37.7567 51.9671 37.7273 51.9671 37.694C51.9671 37.6607 51.9791 37.632 52.0031 37.608C52.0284 37.5827 52.0578 37.57 52.0911 37.57C52.1244 37.57 52.1531 37.5827 52.1771 37.608C52.2024 37.632 52.2151 37.6607 52.2151 37.694C52.2151 37.7273 52.2024 37.7567 52.1771 37.782C52.1531 37.806 52.1244 37.818 52.0911 37.818ZM52.5937 39V38.41C52.5937 38.3193 52.6137 38.24 52.6537 38.172C52.695 38.104 52.7517 38.0513 52.8237 38.014C52.8957 37.9753 52.9777 37.956 53.0697 37.956C53.163 37.956 53.245 37.9753 53.3157 38.014C53.3877 38.0513 53.4437 38.104 53.4837 38.172C53.525 38.24 53.5457 38.3193 53.5457 38.41V39H53.3617V38.412C53.3617 38.3507 53.3477 38.298 53.3197 38.254C53.293 38.2087 53.257 38.174 53.2117 38.15C53.1677 38.126 53.1203 38.114 53.0697 38.114C53.019 38.114 52.971 38.126 52.9257 38.15C52.8817 38.174 52.8457 38.2087 52.8177 38.254C52.791 38.298 52.7777 38.3507 52.7777 38.412V39H52.5937ZM53.9578 39V37.54H54.1418V38.112C54.1831 38.0587 54.2331 38.0193 54.2918 37.994C54.3518 37.9687 54.4138 37.956 54.4778 37.956C54.5685 37.956 54.6471 37.9753 54.7138 38.014C54.7805 38.0513 54.8325 38.104 54.8698 38.172C54.9071 38.24 54.9258 38.3193 54.9258 38.41V39H54.7418V38.412C54.7418 38.3507 54.7278 38.298 54.6998 38.254C54.6718 38.2087 54.6345 38.174 54.5878 38.15C54.5425 38.126 54.4938 38.114 54.4418 38.114C54.3898 38.114 54.3411 38.126 54.2958 38.15C54.2505 38.1727 54.2131 38.206 54.1838 38.25C54.1558 38.294 54.1418 38.3467 54.1418 38.408V39H53.9578ZM55.7616 39.024C55.6629 39.024 55.5776 39.0007 55.5056 38.954C55.4336 38.906 55.3782 38.8413 55.3396 38.76C55.3009 38.6787 55.2816 38.5887 55.2816 38.49C55.2816 38.39 55.3029 38.3 55.3456 38.22C55.3882 38.1387 55.4496 38.0747 55.5296 38.028C55.6096 37.98 55.7056 37.956 55.8176 37.956C55.9256 37.956 56.0182 37.9793 56.0956 38.026C56.1729 38.0727 56.2322 38.136 56.2736 38.216C56.3162 38.296 56.3376 38.3853 56.3376 38.484V39H56.1516V38.792H56.1476C56.1276 38.8307 56.1002 38.868 56.0656 38.904C56.0322 38.9387 55.9902 38.9673 55.9396 38.99C55.8889 39.0127 55.8296 39.024 55.7616 39.024ZM55.8096 38.866C55.8762 38.866 55.9349 38.85 55.9856 38.818C56.0376 38.7847 56.0776 38.7393 56.1056 38.682C56.1349 38.6233 56.1496 38.558 56.1496 38.486C56.1496 38.4153 56.1356 38.352 56.1076 38.296C56.0809 38.24 56.0422 38.196 55.9916 38.164C55.9409 38.1307 55.8816 38.114 55.8136 38.114C55.7416 38.114 55.6796 38.1307 55.6276 38.164C55.5769 38.1973 55.5376 38.2427 55.5096 38.3C55.4829 38.356 55.4696 38.42 55.4696 38.492C55.4696 38.5613 55.4829 38.6247 55.5096 38.682C55.5362 38.738 55.5749 38.7827 55.6256 38.816C55.6762 38.8493 55.7376 38.866 55.8096 38.866ZM57.0998 39.33V39.172H57.2618C57.3072 39.172 57.3418 39.1587 57.3658 39.132C57.3898 39.1067 57.4018 39.072 57.4018 39.028V37.98H57.5858V39.04C57.5858 39.1293 57.5598 39.2 57.5078 39.252C57.4558 39.304 57.3845 39.33 57.2938 39.33H57.0998ZM57.4918 37.816C57.4585 37.816 57.4292 37.804 57.4038 37.78C57.3798 37.7547 57.3678 37.7253 57.3678 37.692C57.3678 37.6587 57.3798 37.63 57.4038 37.606C57.4292 37.5807 57.4585 37.568 57.4918 37.568C57.5252 37.568 57.5538 37.5807 57.5778 37.606C57.6032 37.63 57.6158 37.6587 57.6158 37.692C57.6158 37.7253 57.6032 37.7547 57.5778 37.78C57.5538 37.804 57.5252 37.816 57.4918 37.816ZM58.4744 39.024C58.3824 39.024 58.2997 39.0053 58.2264 38.968C58.1544 38.9293 58.0977 38.876 58.0564 38.808C58.0164 38.74 57.9964 38.6607 57.9964 38.57V37.98H58.1824V38.568C58.1824 38.6293 58.1957 38.6827 58.2224 38.728C58.2491 38.772 58.2844 38.806 58.3284 38.83C58.3737 38.854 58.4217 38.866 58.4724 38.866C58.5244 38.866 58.5724 38.854 58.6164 38.83C58.6617 38.806 58.6977 38.772 58.7244 38.728C58.7524 38.6827 58.7664 38.6293 58.7664 38.568V37.98H58.9524V38.57C58.9524 38.6607 58.9317 38.74 58.8904 38.808C58.8491 38.876 58.7924 38.9293 58.7204 38.968C58.6484 39.0053 58.5664 39.024 58.4744 39.024ZM59.3644 39V38.41C59.3644 38.3193 59.3844 38.24 59.4244 38.172C59.4658 38.104 59.5224 38.0513 59.5944 38.014C59.6664 37.9753 59.7484 37.956 59.8404 37.956C59.9338 37.956 60.0158 37.9753 60.0864 38.014C60.1584 38.0513 60.2144 38.104 60.2544 38.172C60.2958 38.24 60.3164 38.3193 60.3164 38.41V39H60.1324V38.412C60.1324 38.3507 60.1184 38.298 60.0904 38.254C60.0638 38.2087 60.0278 38.174 59.9824 38.15C59.9384 38.126 59.8911 38.114 59.8404 38.114C59.7898 38.114 59.7418 38.126 59.6964 38.15C59.6524 38.174 59.6164 38.2087 59.5884 38.254C59.5618 38.298 59.5484 38.3507 59.5484 38.412V39H59.3644ZM61.0766 39C60.9859 39 60.9146 38.974 60.8626 38.922C60.8119 38.87 60.7866 38.7993 60.7866 38.71V37.724H60.9706V38.698C60.9706 38.742 60.9826 38.7773 61.0066 38.804C61.0319 38.8293 61.0666 38.842 61.1106 38.842H61.3166V39H61.0766ZM60.6106 38.138V37.98H61.3206V38.138H60.6106ZM62.1118 39.024C62.0078 39.024 61.9158 39.0007 61.8358 38.954C61.7558 38.906 61.6924 38.842 61.6458 38.762C61.5991 38.6807 61.5758 38.59 61.5758 38.49C61.5758 38.39 61.5991 38.3 61.6458 38.22C61.6924 38.1387 61.7558 38.0747 61.8358 38.028C61.9158 37.98 62.0078 37.956 62.1118 37.956C62.2158 37.956 62.3078 37.98 62.3878 38.028C62.4691 38.0747 62.5324 38.138 62.5778 38.218C62.6244 38.298 62.6478 38.3887 62.6478 38.49C62.6478 38.59 62.6244 38.6807 62.5778 38.762C62.5324 38.842 62.4691 38.906 62.3878 38.954C62.3078 39.0007 62.2158 39.024 62.1118 39.024ZM62.1118 38.866C62.1824 38.866 62.2438 38.8493 62.2958 38.816C62.3478 38.7827 62.3884 38.738 62.4178 38.682C62.4471 38.6247 62.4618 38.5607 62.4618 38.49C62.4618 38.4193 62.4471 38.356 62.4178 38.3C62.3884 38.2427 62.3478 38.1973 62.2958 38.164C62.2438 38.1307 62.1824 38.114 62.1118 38.114C62.0424 38.114 61.9811 38.1307 61.9278 38.164C61.8758 38.1973 61.8351 38.2427 61.8058 38.3C61.7764 38.356 61.7618 38.4193 61.7618 38.49C61.7618 38.5607 61.7764 38.6247 61.8058 38.682C61.8351 38.738 61.8758 38.7827 61.9278 38.816C61.9811 38.8493 62.0424 38.866 62.1118 38.866ZM63.0657 39.02C63.0297 39.02 62.9984 39.0073 62.9717 38.982C62.9464 38.9553 62.9337 38.924 62.9337 38.888C62.9337 38.852 62.9464 38.8213 62.9717 38.796C62.9984 38.7693 63.0297 38.756 63.0657 38.756C63.1017 38.756 63.1324 38.7693 63.1577 38.796C63.1844 38.8213 63.1977 38.852 63.1977 38.888C63.1977 38.912 63.1917 38.934 63.1797 38.954C63.1691 38.974 63.1537 38.99 63.1337 39.002C63.1137 39.014 63.0911 39.02 63.0657 39.02Z" fill="#342056"/>
</svg>
